<?xml version="1.0" encoding="UTF-8"?>
<svg version="1.1" viewBox="0 0 912 912" width="228" height="228" xmlns="http://www.w3.org/2000/svg">
<path transform="translate(385)" d="m0 0h139l25 5 32 8 23 7 31 12 50 25 16 10 15 10 13 10 11 8 8 7 10 8 12 11 20 20 7 8 11 13 8 10 14 19 13 20 10 17 14 27 10 22 11 29 8 27 4 15 6 31 4 27 2 16v61l-4 35-7 37-5 21-9 29-11 29-12 25-10 20-7 11-10 16-11 16-12 16-13 16-7 8-35 35-8 7-10 8-19 14-30 20-22 13-22 11-31 13-33 11-28 7-31 6-37 5h-63l-45-6-37-8-34-10-16-6-6-3-9-3-25-12-22-11-26-16-14-10-8-6-6-4-10-9-13-10-39-39-18-22-10-13-20-30-13-23-8-15-14-32-9-24-10-35-6-29-4-24-3-21v-71l4-32 6-32 6-25 10-32 11-28 9-19 10-19 7-13 6-9 7-11 8-12 10-13 7-9 12-15 7-8 30-30 8-7 11-9 21-16 29-19 22-13 19-10 24-10 15-6 34-11z" fill="#385776"/>
<path transform="translate(552,177)" d="m0 0h137l20 2 32 6 24 8 18 8 12 6 12 7 10 8 11 6 7 8 5 7 8 8 3 9-4 1-18-7-8-2-5-2-7-1-3-2h-12l-6-2-8-1-1-1h-17l-2-1h-22l-1 1h-18l-12 3-11 6-7 7-8 13-2 3-1 9-2 4-7 5-23 1-2 1-2 12v7l1 2 2 26-1 14v80l3 12-1 9v12l6 2 6 7 1 7v245l-1 90-1 4-10 3-6 2-37 3-6-1h-12l-16-4-11-3-2-5-1-15v-118l1-22-1-17v-11l1-10v-14l-1-14v-11l1-8v-96l2-6 12-8 1-3v-36l2-52v-84l-27-1-9-3-2-2-1-4v-16h-64v15l-3 5-6 4-8 1h-81l-7-1-8-6-2-10v-66l1-30 5-2h90l10 1 8 6 3 8 8 1h22l10-1h20l3-1v-12l9-2z" fill="#FCFDFD"/>
<path transform="translate(386,351)" d="m0 0h31l18 2 15 4 13 7 13 12 9 12 7 16 4 18v32l-4 5-2 1h-62l-4-4-2-5-2-21-3-9-5-5-5-2h-7l-8 4-5 8-2 8 1 13 4 10 7 8 10 7 26 14 13 8 11 8 10 9 10 10 7 11 6 13 5 20 1 7v39l-4 18-7 16-8 11-5 5-8 7-15 8-13 4-20 2h-26l-19-2-15-4-12-6-10-9-9-10-6-11-5-12-3-13-2-17v-18l3-8 5-4 17-1h35l10 2 4 5 1 2 1 22 3 11 4 6 9 4 10-1 5-5 3-6 1-5v-14l-3-12-7-11-7-7-15-10-18-10-16-10-13-11-5-5-9-10-9-16-5-15-3-20-1-16 2-18 4-16 7-14 8-11 8-8 10-7 11-5 16-4z" fill="#FCFDFC"/>
<path transform="translate(141,355)" d="m0 0h32l19 2 14 4 14 8 12 11 9 12 6 13 5 21v36l-4 5-9 2h-51l-5-2-5-8-2-26-3-9-5-4-6-2-9 1-6 4-5 10-1 10v158l3 12 4 6 5 3 8 1 7-2 5-5 3-9 1-6 1-20 3-6 4-3 16-1h36l9 1 6 7 1 15-1 21-4 18-7 16-10 14-10 9-14 8-15 4-19 2h-28l-24-3-14-5-10-6-12-12-7-10-6-12-4-14-2-13-1-13v-152l1-18 3-16 4-11 5-10 8-11 9-9 11-7 12-5 12-3z" fill="#FBFDFC"/>
<path transform="translate(656,477)" d="m0 0 2 1 1 7v245l-1 90-1 4-2-1v-138l1-103z" fill="#A4B2C0"/>
<path transform="translate(560,476)" d="m0 0 2 1-2 3v138l-1 20v169l1 16 2 1h-3l-2-5-1-15v-118l1-22-1-17v-11l1-10v-14l-1-14v-11l1-8v-96l2-6z" fill="#A4B2C0"/>
<path transform="translate(362,178)" d="m0 0h90v1l-92 2v104l2 3-4-2-2-10v-66l1-30z" fill="#A4B2C0"/>
<path transform="translate(741,238)" d="m0 0 19 1 2 1h15l5 2 9 1 9 2 5-1 3 3h-14l-6-2-8-1-1-1h-17l-2-1h-22l-1 1h-18l-12 3-11 6-7 7-8 13-2 3-1 9h-1v-10l8-14 11-11 14-7 4-1 23-1z" fill="#A4B2C0"/>
<path transform="translate(517,267)" d="m0 0h19l1 1 2 20 8 3v1l-8-1-3-3-1-4v-16h-18z" fill="#A4B2C0"/>
<path transform="translate(840,244)" d="m0 0 3 1 5 6 3 9-4 1-10-4 3-1 9 3-5-9-4-5z" fill="#A4B2C0"/>
</svg>
